<svg width="39" height="39" viewBox="0 0 39 39" fill="none" xmlns="http://www.w3.org/2000/svg">
<rect x="0.265625" y="0.359863" width="38" height="38" rx="19" fill="#C0C0C0"/>
<rect x="0.265625" y="0.359863" width="38" height="38" rx="19" fill="#2C2C2C"/>
<path d="M26.8664 12.3319L24.0113 27.2374C24.0113 27.2374 23.6118 28.2709 22.5144 27.7752L15.9268 22.5447L15.8962 22.5293C16.786 21.7019 23.6862 15.2773 23.9878 14.9861C24.4546 14.5351 24.1648 14.2666 23.6227 14.6073L13.4304 21.3101L9.49816 19.94C9.49816 19.94 8.87935 19.7121 8.81982 19.2164C8.7595 18.72 9.51853 18.4515 9.51853 18.4515L25.5489 11.9393C25.5489 11.9393 26.8664 11.3398 26.8664 12.3319Z" fill="#DCBA70"/>
</svg>
